<?xml version="1.0" standalone="no"?>
<!DOCTYPE svg PUBLIC "-//W3C//DTD SVG 20010904//EN"
 "http://www.w3.org/TR/2001/REC-SVG-20010904/DTD/svg10.dtd">
<svg version="1.0" xmlns="http://www.w3.org/2000/svg"
 width="148.000000pt" height="148.000000pt" viewBox="0 0 148.000000 148.000000"
 preserveAspectRatio="xMidYMid meet">
<metadata>
Created by potrace 1.14, written by Peter Selinger 2001-2017
</metadata>
<g transform="translate(0.000000,148.000000) scale(0.100000,-0.100000)"
fill="#000000" stroke="none">
<path d="M405 943 c-59 -148 -109 -274 -112 -280 -4 -10 13 -13 64 -13 l69 0
20 48 20 47 108 1 108 1 21 -49 20 -48 68 0 69 0 -19 48 c-10 26 -27 67 -36
92 -9 25 -23 59 -30 75 -7 17 -25 62 -40 100 -15 39 -33 84 -40 100 -6 17 -22
56 -35 88 l-22 57 -63 0 -63 0 -107 -267z m209 3 c20 -49 36 -90 36 -92 0 -2
-34 -4 -75 -4 -41 0 -75 1 -75 3 0 1 13 36 28 77 16 41 32 84 36 94 3 10 8 17
10 15 3 -2 21 -44 40 -93z"/>
<path d="M1099 1055 c0 -85 0 -175 0 -200 0 -25 0 -81 0 -125 l1 -80 65 0 65
0 0 280 0 280 -65 0 -65 0 -1 -155z"/>
<path d="M648 402 l-478 -2 0 -68 0 -67 615 0 c338 0 615 2 616 5 1 3 2 33 3
68 2 58 0 62 -21 63 -168 3 -334 4 -735 1z"/>
</g>
</svg>
